<?xml version="1.0" standalone="no"?>
<!DOCTYPE svg PUBLIC "-//W3C//DTD SVG 20010904//EN"
 "http://www.w3.org/TR/2001/REC-SVG-20010904/DTD/svg10.dtd">
<svg version="1.0" xmlns="http://www.w3.org/2000/svg"
 width="600.000000pt" height="600.000000pt" viewBox="0 0 600.000000 600.000000"
 preserveAspectRatio="xMidYMid meet">
<metadata>
Created by potrace 1.14, written by Peter Selinger 2001-2017
</metadata>
<g transform="translate(0.000000,600.000000) scale(0.100000,-0.100000)"
fill="#000000" stroke="none">
<path d="M2444 5122 c-122 -46 -269 -164 -440 -355 -44 -49 -189 -229 -214
-267 -39 -58 -34 -57 -85 -12 -26 23 -95 74 -154 114 -58 39 -108 74 -111 77
-3 3 -19 13 -35 22 -87 47 -213 124 -238 145 -31 26 -201 113 -232 119 -11 2
-20 4 -20 5 0 2 -35 11 -55 14 -9 1 -20 5 -25 8 -6 3 -59 4 -120 3 -170 -4
-253 -40 -380 -169 -250 -251 -315 -599 -210 -1119 3 -16 12 -52 20 -80 8 -29
17 -63 20 -77 4 -14 9 -32 12 -40 3 -8 7 -22 9 -30 2 -8 7 -23 12 -35 27 -59
36 -81 37 -90 0 -5 4 -16 9 -23 5 -9 -2 -32 -18 -63 -32 -57 -49 -114 -70
-229 -9 -47 -18 -96 -21 -110 -3 -14 -7 -41 -10 -60 -2 -19 -4 -35 -5 -35 -2
0 -7 -33 -19 -125 -16 -124 -19 -145 -26 -250 -4 -52 -8 -106 -11 -120 -9 -62
-13 -512 -4 -579 12 -88 42 -148 90 -175 29 -17 51 -20 135 -20 370 4 904 3
925 -2 21 -4 232 -40 335 -57 97 -16 634 -108 655 -112 14 -3 45 -8 70 -11 25
-3 53 -8 63 -10 16 -5 42 -9 122 -19 17 -2 44 -6 60 -8 17 -3 55 -9 85 -12 58
-7 137 -41 258 -112 41 -24 75 -43 77 -43 2 0 23 -13 47 -29 145 -98 350 -82
458 35 61 66 79 136 43 165 -15 12 -16 12 -8 -1 6 -12 5 -12 -5 -3 -9 8 -20 8
-44 -1 -17 -7 -40 -17 -51 -21 -11 -4 -24 -9 -30 -11 -5 -1 -37 -14 -70 -28
-33 -14 -78 -26 -100 -26 -50 0 -139 43 -222 108 -24 18 -43 30 -43 25 0 -4
-4 -3 -8 3 -7 10 -174 78 -252 103 -19 6 -73 17 -120 25 -47 9 -98 18 -115 22
-41 8 -74 14 -110 19 -16 2 -41 6 -55 9 -14 3 -43 8 -65 11 -22 3 -49 8 -60
10 -11 1 -42 6 -70 9 -27 4 -57 9 -65 11 -8 3 -46 9 -85 15 -38 5 -81 12 -95
14 -14 3 -43 7 -65 10 -22 3 -56 7 -75 10 -80 12 -280 35 -350 41 -66 5 -122
11 -170 20 -14 3 -82 11 -160 20 -149 18 -404 22 -617 10 -75 -4 -133 -4 -134
1 0 5 -3 18 -5 29 -8 30 -8 444 -1 580 9 181 24 325 40 400 3 11 8 40 12 65
13 78 16 93 37 190 29 135 44 164 88 166 43 2 138 15 205 28 17 3 46 8 65 11
41 6 75 13 75 15 0 1 7 3 15 5 50 10 150 39 197 56 65 25 66 24 127 -79 55
-95 100 -158 152 -214 l41 -44 -27 -32 c-26 -31 -35 -62 -18 -62 4 0 7 -5 6
-12 -2 -6 8 -17 21 -24 29 -15 22 -17 243 85 48 22 111 50 140 62 29 11 62 25
73 30 11 5 43 17 71 28 49 19 122 50 172 74 24 11 42 2 45 -24 2 -8 5 -18 9
-24 3 -5 11 -28 17 -50 21 -81 132 -239 200 -286 30 -21 45 -23 140 -23 58 0
123 3 144 7 21 4 59 10 85 13 115 14 353 79 442 121 56 27 63 25 95 -25 48
-76 242 -264 304 -295 107 -53 191 -26 242 78 24 50 30 75 32 140 3 103 -10
217 -26 227 -9 6 -9 8 0 8 13 0 -4 56 -24 78 -7 7 -13 18 -13 23 0 6 -7 4 -15
-5 -18 -17 -49 -86 -39 -86 4 0 2 -6 -4 -13 -6 -7 -13 -24 -15 -37 -2 -14 -7
-32 -10 -40 -4 -8 -16 -51 -28 -95 -11 -44 -24 -83 -28 -87 -4 -5 -54 34 -112
85 -58 50 -120 104 -138 120 -27 22 -31 30 -21 42 22 26 1 35 -72 30 -38 -3
-75 -8 -81 -12 -5 -3 -31 -8 -56 -9 -25 -2 -57 -6 -71 -8 -14 -2 -47 -7 -75
-10 -92 -11 -129 -18 -230 -38 -55 -11 -104 -21 -110 -22 -5 -1 -15 -5 -21 -9
-7 -4 -29 -10 -50 -13 -150 -24 -194 -27 -194 -11 0 26 -48 132 -100 219 -42
73 -49 91 -40 108 6 11 13 20 16 20 3 0 2 -5 -2 -11 -5 -8 -1 -8 14 0 21 11
20 50 -2 53 -22 2 -31 5 -49 13 -72 31 -453 -58 -583 -136 -17 -10 -34 -16
-37 -12 -4 3 -7 2 -7 -4 0 -6 -8 -13 -17 -16 -10 -3 -32 -15 -49 -27 l-32 -21
-27 48 c-43 75 -125 181 -186 242 -9 9 -22 27 -29 41 -12 22 -11 23 2 13 12
-10 15 -10 15 2 0 8 -2 13 -5 11 -2 -3 -24 4 -49 15 -43 18 -78 19 -105 3 -6
-4 -64 -9 -127 -10 -202 -5 -325 -13 -371 -23 -25 -5 -63 -12 -85 -15 -23 -4
-50 -8 -62 -10 -26 -5 -33 9 -39 88 -3 33 -8 64 -10 68 -3 5 -7 23 -9 41 -4
28 -19 128 -31 197 -19 114 -25 371 -12 485 4 33 14 87 23 120 17 66 84 215
96 215 4 0 10 9 14 20 11 36 128 142 184 168 45 21 72 26 149 27 51 1 95 -2
98 -7 3 -5 9 -6 13 -4 13 9 165 -35 193 -55 15 -10 31 -19 37 -19 5 0 11 -3
13 -7 3 -8 147 -113 308 -226 101 -71 334 -207 355 -207 8 0 15 -4 15 -9 0 -5
10 -11 23 -15 14 -4 18 -9 11 -13 -18 -12 -7 -46 21 -70 14 -13 51 -30 82 -39
113 -33 617 -7 838 44 22 5 49 5 60 1 11 -4 16 -8 10 -9 -5 0 1 -7 14 -14 25
-14 71 -10 71 7 0 6 3 8 6 5 3 -4 63 31 132 77 129 83 230 138 357 191 38 16
94 41 125 56 l55 28 22 -26 c12 -15 25 -35 28 -45 4 -11 11 -19 16 -19 5 0 9
-4 9 -9 0 -11 242 -372 349 -520 45 -63 89 -127 96 -141 8 -15 37 -61 64 -103
28 -42 51 -81 51 -86 0 -5 4 -11 8 -13 4 -1 53 -70 107 -153 96 -144 216 -301
257 -337 19 -17 19 -17 -2 -38 -50 -50 -10 -111 144 -214 199 -133 455 -236
654 -263 38 -5 42 -8 41 -32 -1 -14 4 -46 11 -71 14 -51 17 -67 24 -130 3 -25
8 -56 11 -69 2 -13 7 -49 11 -80 9 -91 11 -104 19 -156 4 -27 8 -60 9 -72 1
-12 5 -25 8 -28 4 -4 4 -13 2 -20 -3 -7 -1 -22 5 -33 7 -13 7 -22 0 -29 -8 -8
-7 -13 0 -17 14 -9 14 -59 1 -72 -25 -25 -17 -58 38 -167 32 -61 72 -143 89
-182 17 -38 43 -97 58 -130 59 -134 140 -283 149 -278 5 3 6 1 3 -4 -8 -13 16
-64 41 -87 34 -30 60 -3 66 66 1 16 -1 28 -6 28 -5 0 -4 8 1 19 6 10 8 21 5
23 -2 3 -6 14 -8 24 -15 84 -23 123 -30 149 -1 6 -8 30 -15 55 -24 86 -139
307 -206 395 -72 94 -69 82 -48 200 8 44 8 281 0 345 -4 30 -11 70 -16 88 -5
17 -8 32 -6 32 7 0 -41 134 -64 177 -25 50 -26 54 -6 47 8 -4 23 -3 33 1 16 7
15 8 -3 15 -19 8 -19 9 -1 9 17 1 17 3 -5 21 -13 11 -29 24 -35 29 -7 5 -15 7
-18 4 -3 -4 -6 -1 -6 5 0 7 -9 12 -19 12 -11 0 -21 4 -23 9 -5 15 -344 179
-387 187 -8 1 -18 9 -22 16 -5 7 -9 10 -9 6 0 -4 -30 7 -67 24 -38 16 -87 39
-110 49 -24 11 -55 24 -69 29 -14 6 -28 19 -31 30 -3 11 -10 17 -16 13 -6 -3
-7 -1 -3 5 6 11 -45 115 -117 237 -19 33 -104 159 -188 280 -244 351 -369 536
-369 545 0 5 -4 10 -8 12 -5 2 -25 28 -45 58 -100 153 -196 278 -285 372 -55
58 -58 64 -40 85 7 9 6 15 -6 19 -9 3 -14 10 -11 14 7 11 -24 22 -37 13 -6 -3
-8 -1 -5 4 15 23 -128 25 -225 3 -121 -27 -265 -93 -386 -176 l-77 -53 -8 27
c-4 15 -10 41 -13 57 -28 172 -159 465 -251 562 -73 77 -164 100 -259 65z
m134 -231 c17 -28 32 -55 32 -60 0 -6 5 -11 10 -11 6 0 10 -8 10 -18 0 -10 4
-22 9 -27 5 -6 26 -50 46 -100 45 -109 109 -236 136 -266 30 -35 62 -89 56
-95 -3 -3 -74 -5 -159 -4 -238 4 -341 3 -503 -6 -82 -4 -187 -8 -233 -8 -80
-1 -84 0 -99 26 -17 27 -17 27 48 95 36 37 95 100 130 138 219 240 394 384
469 385 8 0 30 -22 48 -49z m666 -1909 c2 -4 -5 -9 -17 -9 -17 -2 -19 0 -7 7
18 12 18 12 24 2z"/>
<path d="M830 4147 c-44 -49 -50 -59 -65 -118 -10 -35 -10 -50 -1 -60 8 -9 8
-10 -2 -4 -16 8 -13 -23 3 -41 13 -16 73 -4 102 20 67 54 90 90 99 158 5 31 1
42 -20 63 -36 36 -73 31 -116 -18z"/>
<path d="M3335 3930 c-83 -14 -137 -56 -181 -142 -65 -128 -42 -295 54 -379
64 -57 110 -74 197 -74 88 0 131 17 192 73 58 54 78 106 78 207 0 77 -4 98
-26 145 -62 130 -177 192 -314 170z m161 -68 c44 -22 82 -63 103 -107 7 -17
17 -38 22 -47 22 -43 -99 -50 -173 -11 -45 24 -98 87 -98 116 0 7 -4 17 -9 23
-5 5 -5 19 0 33 9 22 13 23 63 18 29 -3 71 -14 92 -25z"/>
</g>
</svg>
